<mxfile host="app.diagrams.net" agent="Mozilla/5.0 (Windows NT 10.0; Win64; x64) AppleWebKit/537.36 (KHTML, like Gecko) Chrome/135.0.0.0 Safari/537.36" version="26.2.9">
  <diagram id="R2lEEEUBdFMjLlhIrx00" name="Page-1">
    <mxGraphModel dx="2278" dy="777" grid="1" gridSize="10" guides="1" tooltips="1" connect="1" arrows="1" fold="1" page="1" pageScale="1" pageWidth="850" pageHeight="1100" math="0" shadow="0" extFonts="Permanent Marker^https://fonts.googleapis.com/css?family=Permanent+Marker">
      <root>
        <mxCell id="0" />
        <mxCell id="1" parent="0" />
        <mxCell id="dC-HwYoVtTatP6Q8KkVY-1" value="cliente" style="whiteSpace=wrap;html=1;align=center;" parent="1" vertex="1">
          <mxGeometry x="280" y="50" width="100" height="40" as="geometry" />
        </mxCell>
        <mxCell id="dC-HwYoVtTatP6Q8KkVY-2" value="nro de cliente" style="ellipse;whiteSpace=wrap;html=1;align=center;" parent="1" vertex="1">
          <mxGeometry x="20" y="40" width="100" height="40" as="geometry" />
        </mxCell>
        <mxCell id="dC-HwYoVtTatP6Q8KkVY-3" value="direcciones de envio" style="ellipse;whiteSpace=wrap;html=1;align=center;" parent="1" vertex="1">
          <mxGeometry x="30" y="110" width="100" height="40" as="geometry" />
        </mxCell>
        <mxCell id="dC-HwYoVtTatP6Q8KkVY-4" value="saldo" style="ellipse;whiteSpace=wrap;html=1;align=center;" parent="1" vertex="1">
          <mxGeometry x="120" y="150" width="100" height="40" as="geometry" />
        </mxCell>
        <mxCell id="dC-HwYoVtTatP6Q8KkVY-5" value="descuento" style="ellipse;whiteSpace=wrap;html=1;align=center;" parent="1" vertex="1">
          <mxGeometry x="320" y="180" width="100" height="40" as="geometry" />
        </mxCell>
        <mxCell id="dC-HwYoVtTatP6Q8KkVY-6" value="limite de saldo" style="ellipse;whiteSpace=wrap;html=1;align=center;" parent="1" vertex="1">
          <mxGeometry x="210" y="210" width="100" height="40" as="geometry" />
        </mxCell>
        <mxCell id="dC-HwYoVtTatP6Q8KkVY-7" value="articulo" style="whiteSpace=wrap;html=1;align=center;" parent="1" vertex="1">
          <mxGeometry x="695" y="100" width="100" height="40" as="geometry" />
        </mxCell>
        <mxCell id="dC-HwYoVtTatP6Q8KkVY-8" value="nro de articulo" style="ellipse;whiteSpace=wrap;html=1;align=center;" parent="1" vertex="1">
          <mxGeometry x="990" y="40" width="100" height="40" as="geometry" />
        </mxCell>
        <mxCell id="dC-HwYoVtTatP6Q8KkVY-9" value="descripcion&amp;nbsp;" style="ellipse;whiteSpace=wrap;html=1;align=center;" parent="1" vertex="1">
          <mxGeometry x="840" y="10" width="100" height="40" as="geometry" />
        </mxCell>
        <mxCell id="dC-HwYoVtTatP6Q8KkVY-10" value="fabrica" style="whiteSpace=wrap;html=1;align=center;" parent="1" vertex="1">
          <mxGeometry x="250" y="385" width="100" height="40" as="geometry" />
        </mxCell>
        <mxCell id="dC-HwYoVtTatP6Q8KkVY-13" value="encabezado de pedido" style="shape=ext;margin=3;double=1;whiteSpace=wrap;html=1;align=center;" parent="1" vertex="1">
          <mxGeometry x="770" y="310" width="100" height="40" as="geometry" />
        </mxCell>
        <mxCell id="dC-HwYoVtTatP6Q8KkVY-14" value="detalle de pedido" style="shape=ext;margin=3;double=1;whiteSpace=wrap;html=1;align=center;" parent="1" vertex="1">
          <mxGeometry x="770" y="500" width="100" height="40" as="geometry" />
        </mxCell>
        <mxCell id="dC-HwYoVtTatP6Q8KkVY-15" value="tiene" style="shape=rhombus;perimeter=rhombusPerimeter;whiteSpace=wrap;html=1;align=center;" parent="1" vertex="1">
          <mxGeometry x="770" y="230" width="50" height="20" as="geometry" />
        </mxCell>
        <mxCell id="dC-HwYoVtTatP6Q8KkVY-16" value="tiene" style="shape=rhombus;perimeter=rhombusPerimeter;whiteSpace=wrap;html=1;align=center;" parent="1" vertex="1">
          <mxGeometry x="680" y="350" width="50" height="30" as="geometry" />
        </mxCell>
        <mxCell id="dC-HwYoVtTatP6Q8KkVY-17" value="" style="endArrow=classic;html=1;rounded=0;entryX=0.25;entryY=1;entryDx=0;entryDy=0;exitX=0.5;exitY=0;exitDx=0;exitDy=0;" parent="1" source="dC-HwYoVtTatP6Q8KkVY-16" target="dC-HwYoVtTatP6Q8KkVY-7" edge="1">
          <mxGeometry width="50" height="50" relative="1" as="geometry">
            <mxPoint x="500" y="260" as="sourcePoint" />
            <mxPoint x="550" y="210" as="targetPoint" />
          </mxGeometry>
        </mxCell>
        <mxCell id="dC-HwYoVtTatP6Q8KkVY-18" value="" style="endArrow=classic;html=1;rounded=0;exitX=0.5;exitY=0;exitDx=0;exitDy=0;entryX=0.5;entryY=1;entryDx=0;entryDy=0;" parent="1" source="dC-HwYoVtTatP6Q8KkVY-14" target="dC-HwYoVtTatP6Q8KkVY-16" edge="1">
          <mxGeometry width="50" height="50" relative="1" as="geometry">
            <mxPoint x="500" y="260" as="sourcePoint" />
            <mxPoint x="530" y="270" as="targetPoint" />
            <Array as="points">
              <mxPoint x="705" y="460" />
            </Array>
          </mxGeometry>
        </mxCell>
        <mxCell id="dC-HwYoVtTatP6Q8KkVY-19" value="" style="endArrow=classic;html=1;rounded=0;exitX=0.5;exitY=0;exitDx=0;exitDy=0;entryX=0.5;entryY=1;entryDx=0;entryDy=0;" parent="1" source="dC-HwYoVtTatP6Q8KkVY-13" target="dC-HwYoVtTatP6Q8KkVY-15" edge="1">
          <mxGeometry width="50" height="50" relative="1" as="geometry">
            <mxPoint x="500" y="260" as="sourcePoint" />
            <mxPoint x="550" y="210" as="targetPoint" />
          </mxGeometry>
        </mxCell>
        <mxCell id="dC-HwYoVtTatP6Q8KkVY-20" value="" style="endArrow=classic;html=1;rounded=0;exitX=0.5;exitY=0;exitDx=0;exitDy=0;entryX=0.5;entryY=1;entryDx=0;entryDy=0;" parent="1" source="dC-HwYoVtTatP6Q8KkVY-15" target="dC-HwYoVtTatP6Q8KkVY-7" edge="1">
          <mxGeometry width="50" height="50" relative="1" as="geometry">
            <mxPoint x="500" y="260" as="sourcePoint" />
            <mxPoint x="550" y="210" as="targetPoint" />
          </mxGeometry>
        </mxCell>
        <mxCell id="dC-HwYoVtTatP6Q8KkVY-21" value="numero de cliente" style="ellipse;whiteSpace=wrap;html=1;align=center;" parent="1" vertex="1">
          <mxGeometry x="1000" y="270" width="100" height="40" as="geometry" />
        </mxCell>
        <mxCell id="dC-HwYoVtTatP6Q8KkVY-22" value="direccion de envio" style="ellipse;whiteSpace=wrap;html=1;align=center;" parent="1" vertex="1">
          <mxGeometry x="1000" y="350" width="100" height="40" as="geometry" />
        </mxCell>
        <mxCell id="dC-HwYoVtTatP6Q8KkVY-23" value="fecha de pedido" style="ellipse;whiteSpace=wrap;html=1;align=center;" parent="1" vertex="1">
          <mxGeometry x="1000" y="440" width="100" height="40" as="geometry" />
        </mxCell>
        <mxCell id="dC-HwYoVtTatP6Q8KkVY-24" value="telefono" style="ellipse;whiteSpace=wrap;html=1;align=center;" parent="1" vertex="1">
          <mxGeometry x="180" y="490" width="100" height="40" as="geometry" />
        </mxCell>
        <mxCell id="dC-HwYoVtTatP6Q8KkVY-25" value="numero de fabrica" style="ellipse;whiteSpace=wrap;html=1;align=center;" parent="1" vertex="1">
          <mxGeometry x="325" y="490" width="100" height="40" as="geometry" />
        </mxCell>
        <mxCell id="dC-HwYoVtTatP6Q8KkVY-26" value="" style="endArrow=none;html=1;rounded=0;exitX=0.5;exitY=0;exitDx=0;exitDy=0;entryX=0.5;entryY=1;entryDx=0;entryDy=0;" parent="1" source="dC-HwYoVtTatP6Q8KkVY-5" target="dC-HwYoVtTatP6Q8KkVY-1" edge="1">
          <mxGeometry width="50" height="50" relative="1" as="geometry">
            <mxPoint x="240" y="190" as="sourcePoint" />
            <mxPoint x="290" y="140" as="targetPoint" />
          </mxGeometry>
        </mxCell>
        <mxCell id="dC-HwYoVtTatP6Q8KkVY-27" value="" style="endArrow=none;html=1;rounded=0;entryX=0.25;entryY=1;entryDx=0;entryDy=0;" parent="1" source="dC-HwYoVtTatP6Q8KkVY-6" target="dC-HwYoVtTatP6Q8KkVY-1" edge="1">
          <mxGeometry width="50" height="50" relative="1" as="geometry">
            <mxPoint x="240" y="190" as="sourcePoint" />
            <mxPoint x="290" y="140" as="targetPoint" />
          </mxGeometry>
        </mxCell>
        <mxCell id="dC-HwYoVtTatP6Q8KkVY-28" value="" style="endArrow=none;html=1;rounded=0;entryX=0.171;entryY=1.009;entryDx=0;entryDy=0;entryPerimeter=0;" parent="1" source="dC-HwYoVtTatP6Q8KkVY-4" target="dC-HwYoVtTatP6Q8KkVY-1" edge="1">
          <mxGeometry width="50" height="50" relative="1" as="geometry">
            <mxPoint x="240" y="190" as="sourcePoint" />
            <mxPoint x="290" y="140" as="targetPoint" />
          </mxGeometry>
        </mxCell>
        <mxCell id="dC-HwYoVtTatP6Q8KkVY-29" value="" style="endArrow=none;html=1;rounded=0;" parent="1" source="dC-HwYoVtTatP6Q8KkVY-2" target="dC-HwYoVtTatP6Q8KkVY-1" edge="1">
          <mxGeometry width="50" height="50" relative="1" as="geometry">
            <mxPoint x="240" y="190" as="sourcePoint" />
            <mxPoint x="290" y="140" as="targetPoint" />
          </mxGeometry>
        </mxCell>
        <mxCell id="dC-HwYoVtTatP6Q8KkVY-30" value="" style="endArrow=none;html=1;rounded=0;" parent="1" source="dC-HwYoVtTatP6Q8KkVY-23" target="dC-HwYoVtTatP6Q8KkVY-13" edge="1">
          <mxGeometry width="50" height="50" relative="1" as="geometry">
            <mxPoint x="740" y="280" as="sourcePoint" />
            <mxPoint x="790" y="230" as="targetPoint" />
          </mxGeometry>
        </mxCell>
        <mxCell id="dC-HwYoVtTatP6Q8KkVY-31" value="" style="endArrow=none;html=1;rounded=0;" parent="1" source="dC-HwYoVtTatP6Q8KkVY-22" target="dC-HwYoVtTatP6Q8KkVY-13" edge="1">
          <mxGeometry width="50" height="50" relative="1" as="geometry">
            <mxPoint x="740" y="280" as="sourcePoint" />
            <mxPoint x="790" y="230" as="targetPoint" />
          </mxGeometry>
        </mxCell>
        <mxCell id="dC-HwYoVtTatP6Q8KkVY-32" value="" style="endArrow=none;html=1;rounded=0;entryX=1;entryY=0.5;entryDx=0;entryDy=0;" parent="1" source="dC-HwYoVtTatP6Q8KkVY-21" target="dC-HwYoVtTatP6Q8KkVY-13" edge="1">
          <mxGeometry width="50" height="50" relative="1" as="geometry">
            <mxPoint x="740" y="280" as="sourcePoint" />
            <mxPoint x="790" y="230" as="targetPoint" />
          </mxGeometry>
        </mxCell>
        <mxCell id="dC-HwYoVtTatP6Q8KkVY-33" value="comuna" style="ellipse;whiteSpace=wrap;html=1;align=center;" parent="1" vertex="1">
          <mxGeometry x="-110" y="170" width="100" height="40" as="geometry" />
        </mxCell>
        <mxCell id="dC-HwYoVtTatP6Q8KkVY-34" value="calle" style="ellipse;whiteSpace=wrap;html=1;align=center;" parent="1" vertex="1">
          <mxGeometry x="-110" y="110" width="100" height="40" as="geometry" />
        </mxCell>
        <mxCell id="dC-HwYoVtTatP6Q8KkVY-35" value="numero" style="ellipse;whiteSpace=wrap;html=1;align=center;" parent="1" vertex="1">
          <mxGeometry x="-110" y="60" width="100" height="40" as="geometry" />
        </mxCell>
        <mxCell id="dC-HwYoVtTatP6Q8KkVY-36" value="ciudad" style="ellipse;whiteSpace=wrap;html=1;align=center;" parent="1" vertex="1">
          <mxGeometry x="-110" y="230" width="100" height="40" as="geometry" />
        </mxCell>
        <mxCell id="dC-HwYoVtTatP6Q8KkVY-38" value="stock" style="ellipse;whiteSpace=wrap;html=1;align=center;" parent="1" vertex="1">
          <mxGeometry x="910" y="160" width="100" height="40" as="geometry" />
        </mxCell>
        <mxCell id="dC-HwYoVtTatP6Q8KkVY-39" value="precio" style="ellipse;whiteSpace=wrap;html=1;align=center;" parent="1" vertex="1">
          <mxGeometry x="1000" y="120" width="100" height="40" as="geometry" />
        </mxCell>
        <mxCell id="dC-HwYoVtTatP6Q8KkVY-40" value="nombre" style="ellipse;whiteSpace=wrap;html=1;align=center;" parent="1" vertex="1">
          <mxGeometry x="110" y="425" width="100" height="40" as="geometry" />
        </mxCell>
        <mxCell id="dC-HwYoVtTatP6Q8KkVY-42" value="tiene" style="shape=rhombus;perimeter=rhombusPerimeter;whiteSpace=wrap;html=1;align=center;" parent="1" vertex="1">
          <mxGeometry x="370" y="320" width="90" height="40" as="geometry" />
        </mxCell>
        <mxCell id="dC-HwYoVtTatP6Q8KkVY-44" value="" style="endArrow=none;html=1;rounded=0;" parent="1" source="dC-HwYoVtTatP6Q8KkVY-10" target="dC-HwYoVtTatP6Q8KkVY-42" edge="1">
          <mxGeometry width="50" height="50" relative="1" as="geometry">
            <mxPoint x="400" y="360" as="sourcePoint" />
            <mxPoint x="450" y="310" as="targetPoint" />
          </mxGeometry>
        </mxCell>
        <mxCell id="dC-HwYoVtTatP6Q8KkVY-45" value="" style="endArrow=none;html=1;rounded=0;" parent="1" source="dC-HwYoVtTatP6Q8KkVY-42" target="dC-HwYoVtTatP6Q8KkVY-7" edge="1">
          <mxGeometry width="50" height="50" relative="1" as="geometry">
            <mxPoint x="400" y="360" as="sourcePoint" />
            <mxPoint x="450" y="310" as="targetPoint" />
          </mxGeometry>
        </mxCell>
        <mxCell id="dC-HwYoVtTatP6Q8KkVY-46" value="Relationship" style="shape=rhombus;perimeter=rhombusPerimeter;whiteSpace=wrap;html=1;align=center;" parent="1" vertex="1">
          <mxGeometry x="430" y="100" width="120" height="60" as="geometry" />
        </mxCell>
        <mxCell id="dC-HwYoVtTatP6Q8KkVY-47" value="cantidad" style="ellipse;whiteSpace=wrap;html=1;align=center;" parent="1" vertex="1">
          <mxGeometry x="1000" y="510" width="100" height="40" as="geometry" />
        </mxCell>
        <mxCell id="dC-HwYoVtTatP6Q8KkVY-49" value="contiene" style="shape=rhombus;perimeter=rhombusPerimeter;whiteSpace=wrap;html=1;align=center;" parent="1" vertex="1">
          <mxGeometry x="795" y="390" width="50" height="30" as="geometry" />
        </mxCell>
        <mxCell id="dC-HwYoVtTatP6Q8KkVY-50" value="" style="endArrow=none;html=1;rounded=0;" parent="1" source="dC-HwYoVtTatP6Q8KkVY-49" target="dC-HwYoVtTatP6Q8KkVY-13" edge="1">
          <mxGeometry width="50" height="50" relative="1" as="geometry">
            <mxPoint x="630" y="310" as="sourcePoint" />
            <mxPoint x="680" y="260" as="targetPoint" />
          </mxGeometry>
        </mxCell>
        <mxCell id="dC-HwYoVtTatP6Q8KkVY-51" value="" style="endArrow=none;html=1;rounded=0;" parent="1" source="dC-HwYoVtTatP6Q8KkVY-14" target="dC-HwYoVtTatP6Q8KkVY-49" edge="1">
          <mxGeometry width="50" height="50" relative="1" as="geometry">
            <mxPoint x="630" y="310" as="sourcePoint" />
            <mxPoint x="680" y="260" as="targetPoint" />
          </mxGeometry>
        </mxCell>
        <mxCell id="dC-HwYoVtTatP6Q8KkVY-52" value="" style="endArrow=none;html=1;rounded=0;" parent="1" source="dC-HwYoVtTatP6Q8KkVY-10" target="dC-HwYoVtTatP6Q8KkVY-25" edge="1">
          <mxGeometry width="50" height="50" relative="1" as="geometry">
            <mxPoint x="360" y="500" as="sourcePoint" />
            <mxPoint x="410" y="450" as="targetPoint" />
          </mxGeometry>
        </mxCell>
        <mxCell id="dC-HwYoVtTatP6Q8KkVY-53" value="" style="endArrow=none;html=1;rounded=0;" parent="1" source="dC-HwYoVtTatP6Q8KkVY-24" target="dC-HwYoVtTatP6Q8KkVY-10" edge="1">
          <mxGeometry width="50" height="50" relative="1" as="geometry">
            <mxPoint x="360" y="500" as="sourcePoint" />
            <mxPoint x="410" y="450" as="targetPoint" />
          </mxGeometry>
        </mxCell>
        <mxCell id="dC-HwYoVtTatP6Q8KkVY-54" value="" style="endArrow=none;html=1;rounded=0;" parent="1" source="dC-HwYoVtTatP6Q8KkVY-40" target="dC-HwYoVtTatP6Q8KkVY-10" edge="1">
          <mxGeometry width="50" height="50" relative="1" as="geometry">
            <mxPoint x="360" y="500" as="sourcePoint" />
            <mxPoint x="410" y="450" as="targetPoint" />
          </mxGeometry>
        </mxCell>
        <mxCell id="dC-HwYoVtTatP6Q8KkVY-55" value="" style="endArrow=none;html=1;rounded=0;" parent="1" source="dC-HwYoVtTatP6Q8KkVY-36" target="dC-HwYoVtTatP6Q8KkVY-3" edge="1">
          <mxGeometry width="50" height="50" relative="1" as="geometry">
            <mxPoint x="100" y="220" as="sourcePoint" />
            <mxPoint x="150" y="170" as="targetPoint" />
          </mxGeometry>
        </mxCell>
        <mxCell id="dC-HwYoVtTatP6Q8KkVY-56" value="" style="endArrow=none;html=1;rounded=0;" parent="1" source="dC-HwYoVtTatP6Q8KkVY-33" target="dC-HwYoVtTatP6Q8KkVY-3" edge="1">
          <mxGeometry width="50" height="50" relative="1" as="geometry">
            <mxPoint x="100" y="220" as="sourcePoint" />
            <mxPoint x="150" y="170" as="targetPoint" />
          </mxGeometry>
        </mxCell>
        <mxCell id="dC-HwYoVtTatP6Q8KkVY-57" value="" style="endArrow=none;html=1;rounded=0;" parent="1" source="dC-HwYoVtTatP6Q8KkVY-34" target="dC-HwYoVtTatP6Q8KkVY-3" edge="1">
          <mxGeometry width="50" height="50" relative="1" as="geometry">
            <mxPoint x="100" y="220" as="sourcePoint" />
            <mxPoint x="150" y="170" as="targetPoint" />
          </mxGeometry>
        </mxCell>
        <mxCell id="dC-HwYoVtTatP6Q8KkVY-58" value="" style="endArrow=none;html=1;rounded=0;exitX=1;exitY=1;exitDx=0;exitDy=0;" parent="1" source="dC-HwYoVtTatP6Q8KkVY-35" target="dC-HwYoVtTatP6Q8KkVY-3" edge="1">
          <mxGeometry width="50" height="50" relative="1" as="geometry">
            <mxPoint x="100" y="220" as="sourcePoint" />
            <mxPoint x="150" y="170" as="targetPoint" />
          </mxGeometry>
        </mxCell>
        <mxCell id="dC-HwYoVtTatP6Q8KkVY-59" value="" style="endArrow=none;html=1;rounded=0;entryX=0.1;entryY=1.011;entryDx=0;entryDy=0;entryPerimeter=0;" parent="1" source="dC-HwYoVtTatP6Q8KkVY-3" target="dC-HwYoVtTatP6Q8KkVY-1" edge="1">
          <mxGeometry width="50" height="50" relative="1" as="geometry">
            <mxPoint x="100" y="220" as="sourcePoint" />
            <mxPoint x="150" y="170" as="targetPoint" />
          </mxGeometry>
        </mxCell>
        <mxCell id="dC-HwYoVtTatP6Q8KkVY-60" value="" style="endArrow=none;html=1;rounded=0;" parent="1" source="dC-HwYoVtTatP6Q8KkVY-1" target="dC-HwYoVtTatP6Q8KkVY-46" edge="1">
          <mxGeometry width="50" height="50" relative="1" as="geometry">
            <mxPoint x="480" y="300" as="sourcePoint" />
            <mxPoint x="530" y="250" as="targetPoint" />
          </mxGeometry>
        </mxCell>
        <mxCell id="dC-HwYoVtTatP6Q8KkVY-61" value="" style="endArrow=none;html=1;rounded=0;" parent="1" source="dC-HwYoVtTatP6Q8KkVY-46" target="dC-HwYoVtTatP6Q8KkVY-13" edge="1">
          <mxGeometry width="50" height="50" relative="1" as="geometry">
            <mxPoint x="480" y="300" as="sourcePoint" />
            <mxPoint x="530" y="250" as="targetPoint" />
          </mxGeometry>
        </mxCell>
        <mxCell id="dC-HwYoVtTatP6Q8KkVY-62" value="" style="endArrow=none;html=1;rounded=0;" parent="1" source="dC-HwYoVtTatP6Q8KkVY-7" target="dC-HwYoVtTatP6Q8KkVY-38" edge="1">
          <mxGeometry width="50" height="50" relative="1" as="geometry">
            <mxPoint x="520" y="260" as="sourcePoint" />
            <mxPoint x="570" y="210" as="targetPoint" />
          </mxGeometry>
        </mxCell>
        <mxCell id="dC-HwYoVtTatP6Q8KkVY-63" value="" style="endArrow=none;html=1;rounded=0;" parent="1" source="dC-HwYoVtTatP6Q8KkVY-39" target="dC-HwYoVtTatP6Q8KkVY-7" edge="1">
          <mxGeometry width="50" height="50" relative="1" as="geometry">
            <mxPoint x="520" y="260" as="sourcePoint" />
            <mxPoint x="570" y="210" as="targetPoint" />
          </mxGeometry>
        </mxCell>
        <mxCell id="dC-HwYoVtTatP6Q8KkVY-64" value="" style="endArrow=none;html=1;rounded=0;" parent="1" source="dC-HwYoVtTatP6Q8KkVY-8" target="dC-HwYoVtTatP6Q8KkVY-7" edge="1">
          <mxGeometry width="50" height="50" relative="1" as="geometry">
            <mxPoint x="520" y="260" as="sourcePoint" />
            <mxPoint x="570" y="210" as="targetPoint" />
          </mxGeometry>
        </mxCell>
        <mxCell id="dC-HwYoVtTatP6Q8KkVY-65" value="" style="endArrow=none;html=1;rounded=0;" parent="1" source="dC-HwYoVtTatP6Q8KkVY-9" target="dC-HwYoVtTatP6Q8KkVY-7" edge="1">
          <mxGeometry width="50" height="50" relative="1" as="geometry">
            <mxPoint x="520" y="260" as="sourcePoint" />
            <mxPoint x="570" y="210" as="targetPoint" />
          </mxGeometry>
        </mxCell>
        <mxCell id="O2cSToddvNNgDh4qFyYT-3" value="" style="endArrow=none;html=1;rounded=0;exitX=0.2;exitY=0;exitDx=0;exitDy=0;exitPerimeter=0;entryX=0.75;entryY=1;entryDx=0;entryDy=0;" parent="1" source="dC-HwYoVtTatP6Q8KkVY-47" target="dC-HwYoVtTatP6Q8KkVY-13" edge="1">
          <mxGeometry width="50" height="50" relative="1" as="geometry">
            <mxPoint x="390" y="360" as="sourcePoint" />
            <mxPoint x="440" y="310" as="targetPoint" />
          </mxGeometry>
        </mxCell>
      </root>
    </mxGraphModel>
  </diagram>
</mxfile>
